<svg xmlns="http://www.w3.org/2000/svg" viewBox="0 0 22 22" fill="currentColor">
    <path d="M19.8 0H2.2C0.99 0 0 0.99 0 2.2V19.8C0 21.01 0.99 22 2.2 22H19.8C21.01 22 22 21.01 22 19.8V2.2C22 0.99 21.01 0 19.8 0ZM11 6.6C13.42 6.6 15.4 8.58 15.4 11C15.4 13.42 13.42 15.4 11 15.4C8.58 15.4 6.6 13.42 6.6 11C6.6 8.58 8.58 6.6 11 6.6ZM2.75 19.8C2.42 19.8 2.2 19.58 2.2 19.25V9.9H4.51C4.4 10.23 4.4 10.67 4.4 11C4.4 14.63 7.37 17.6 11 17.6C14.63 17.6 17.6 14.63 17.6 11C17.6 10.67 17.6 10.23 17.49 9.9H19.8V19.25C19.8 19.58 19.58 19.8 19.25 19.8H2.75ZM19.8 4.95C19.8 5.28 19.58 5.5 19.25 5.5H17.05C16.72 5.5 16.5 5.28 16.5 4.95V2.75C16.5 2.42 16.72 2.2 17.05 2.2H19.25C19.58 2.2 19.8 2.42 19.8 2.75V4.95Z"/>
</svg>