<svg viewBox="0 0 69 69" fill="currentColor" xmlns="http://www.w3.org/2000/svg">
<path d="M58.6879 3.03297C62.7824 3.03297 65.967 6.36923 65.967 10.3121V58.6879C65.967 62.7824 62.6308 65.967 58.6879 65.967H10.3121C6.21758 65.967 3.03297 62.6308 3.03297 58.6879V23.2022L23.2022 3.03297H58.6879ZM58.6879 0H21.989L0 21.989V58.6879C0 64.4506 4.7011 69 10.3121 69H58.6879C64.4506 69 69 64.2989 69 58.6879V10.3121C69 4.7011 64.4506 0 58.6879 0Z"/>
<path d="M20.3209 6.06593V12.2835C20.3209 16.6813 16.6813 20.3209 12.2835 20.3209H6.06593L20.3209 6.06593ZM23.3538 0H21.989L0 21.989V23.3538H12.2835C18.3495 23.3538 23.3538 18.3495 23.3538 12.2835V0Z"/>
<path d="M17.7425 42.1581V48.0724H14.4062V31.6943H20.9271C22.7469 31.6943 24.2634 32.1493 25.3249 33.2108C26.3865 34.1207 26.9931 35.4855 26.9931 37.002C26.9931 38.5185 26.3865 39.8833 25.3249 40.7932C24.2634 41.7031 22.7469 42.1581 20.9271 42.1581H17.7425ZM17.7425 39.5801H20.9271C21.837 39.5801 22.5953 39.2768 23.0502 38.8218C23.5052 38.3669 23.8084 37.7603 23.8084 36.8504C23.8084 36.0921 23.5052 35.4855 23.0502 34.879C22.5953 34.424 21.837 34.1207 20.9271 34.1207H17.7425V39.5801Z"/>
<path d="M29.418 48.0724V31.6943H35.029C37.0004 31.6943 38.6685 32.3009 40.0334 33.6658C41.3982 35.0306 42.0048 36.5471 42.0048 38.5185V41.2482C42.0048 43.2196 41.3982 44.8877 40.0334 46.1009C38.6685 47.3141 37.152 48.0724 35.029 48.0724H29.418ZM32.7542 34.2724V45.646H34.8773C36.0905 45.646 37.0004 45.191 37.607 44.4328C38.2136 43.6746 38.6685 42.613 38.6685 41.2482V38.5185C38.6685 37.3053 38.3652 36.2438 37.607 35.4855C37.0004 34.7273 36.0905 34.2724 34.8773 34.2724H32.7542Z"/>
<path d="M54.7425 41.2482H47.9183V48.0724H44.582V31.6943H55.9557V34.2724H47.9183V38.8218H54.7425V41.2482Z"/>
</svg>
