<svg xmlns="http://www.w3.org/2000/svg" viewBox="0 0 30 30">
    <path d="M29.416 23.061l-3.326-2.144-2.956-1.905a1.34 1.34 0 0 0-1.759.276l-1.83 2.274a1.332 1.332 0 0 1-1.663.333 21.272 21.272 0 0 1-5.948-4.43 20.83 20.83 0 0 1-4.584-5.75 1.232 1.232 0 0 1 .345-1.609l2.352-1.768a1.24 1.24 0 0 0 .286-1.7l-1.91-2.77L6.145.565A1.337 1.337 0 0 0 4.381.181L1.754 1.705A3.12 3.12 0 0 0 .297 3.528c-.719 2.532-.863 8.118 8.397 17.07 9.26 8.95 15.037 8.81 17.656 8.115a3.196 3.196 0 0 0 1.887-1.409l1.576-2.539a1.24 1.24 0 0 0-.397-1.704zM17.068 4.501a8.66 8.66 0 0 1 8.793 8.5.517.517 0 0 0 1.034 0 9.679 9.679 0 0 0-9.828-9.5.5.5 0 1 0 .001 1z"/>
    <path d="M17.068 7.501a5.605 5.605 0 0 1 5.69 5.5.517.517 0 0 0 1.034 0 6.623 6.623 0 0 0-6.724-6.5.509.509 0 0 0-.518.5.51.51 0 0 0 .518.5z"/>
    <path d="M17.068 10.501a2.547 2.547 0 0 1 2.586 2.5.517.517 0 0 0 1.034 0 3.566 3.566 0 0 0-3.62-3.5.509.509 0 0 0-.518.5.51.51 0 0 0 .518.5z"/>
</svg>