<svg xmlns="http://www.w3.org/2000/svg" viewBox="0 0 23 22" fill="currentColor">
    <path d="M20.7 0H2.3C1.035 0 0 0.99 0 2.2V19.8C0 21.01 1.035 22 2.3 22H20.7C21.965 22 23 21.01 23 19.8V2.2C23 0.99 21.965 0 20.7 0ZM12.65 15.62C11.73 15.62 10.81 15.29 10.235 14.63L9.085 18.15L8.97 18.37C8.74 18.7 8.395 18.92 7.935 18.92C7.245 18.92 6.67 18.37 6.67 17.71C6.67 17.6 6.67 17.6 6.67 17.6L6.785 17.38L8.855 11.22C8.855 11.22 8.625 10.56 8.625 9.57C8.625 7.7 9.66 7.15 10.58 7.15C11.385 7.15 12.19 7.48 12.19 8.58C12.19 10.01 11.155 10.78 11.155 11.88C11.155 12.65 11.845 13.31 12.65 13.31C15.295 13.31 16.33 11.33 16.33 9.56996C16.33 7.14996 14.145 5.16996 11.5 5.16996C8.855 5.16996 6.67 7.14996 6.67 9.56996C6.67 10.34 6.9 11 7.245 11.66C7.36 11.88 7.36 11.99 7.36 12.21C7.36 12.87 6.9 13.31 6.21 13.31C5.75 13.31 5.405 13.09 5.175 12.76C4.6 11.77 4.255 10.67 4.255 9.45996C4.255 5.82996 7.475 2.85996 11.385 2.85996C15.295 2.85996 18.515 5.82996 18.515 9.45996C18.63 12.54 16.79 15.62 12.65 15.62Z"/>
</svg>