<svg width="109" height="48" viewBox="0 0 109 48" fill="none" xmlns="http://www.w3.org/2000/svg">
<g clip-path="url(#clip0)">
<path d="M0.652695 13.2971C0.979042 8.10795 5.22156 6.48633 9.79042 6.48633C14.6856 6.48633 18.6018 8.10795 18.6018 13.6215V27.5674H13.0539V23.3512C13.0539 23.3512 11.7485 27.8917 6.52695 27.8917C2.61078 27.8917 0 25.9458 0 22.3782C0 18.4863 3.26347 16.8647 6.52695 15.8917C9.79042 14.9188 13.0539 14.9188 13.0539 12.6485C13.0539 11.0269 11.7485 10.0539 9.79042 10.0539C7.50599 10.0539 6.2006 11.0269 6.2006 13.2971H0.652695ZM8.81138 18.8107C7.17964 19.135 5.5479 20.108 5.5479 22.0539C5.5479 23.6755 6.52695 24.6485 8.48503 24.6485C12.0749 24.3242 13.0539 20.108 13.0539 17.189C12.0749 17.8377 10.4431 18.162 8.81138 18.8107Z" fill="white"/>
<path d="M40.7923 27.2432H35.5707V24.6486H35.2444C35.2444 24.6486 33.6127 27.8919 29.0438 27.8919C23.1695 27.8919 20.2324 22.7027 20.2324 17.1892C20.2324 11.3514 23.1695 6.48649 29.0438 6.48649C33.2863 6.48649 35.2444 9.08108 35.2444 9.08108H35.5707V0H41.1187L40.7923 27.2432ZM30.6755 10.3784C27.4121 10.3784 25.7803 13.2973 25.7803 16.8649C25.7803 20.4324 27.4121 23.3513 30.6755 23.3513C33.939 23.3513 35.5707 20.4324 35.5707 16.8649C35.5707 13.6216 33.939 10.3784 30.6755 10.3784Z" fill="white"/>
<path d="M43.7305 7.13574H49.2784V11.352H52.2155C54.4999 11.352 55.479 11.352 55.479 8.75736V7.13574H61.0269V9.40601C61.0269 13.9466 59.3951 15.2439 53.8472 15.2439H49.6047V27.2439H44.0568V7.13574H43.7305Z" fill="white"/>
<path d="M61.0279 13.2971C61.3542 8.10795 65.2704 6.48633 70.1656 6.48633C75.0608 6.48633 78.977 8.10795 78.977 13.6215V27.5674H73.4291V23.3512H73.1027C73.1027 23.3512 71.7973 27.8917 66.5758 27.8917C62.986 27.8917 60.0488 26.2701 60.0488 22.3782C60.0488 18.4863 63.3123 16.8647 66.5758 15.8917C69.8392 14.9188 73.1027 14.9188 73.1027 12.6485C73.1027 11.0269 71.7973 10.0539 69.8392 10.0539C67.5548 10.0539 66.2494 11.0269 66.2494 13.2971H61.0279ZM69.1866 18.8107C67.5548 19.135 65.9231 20.108 65.9231 22.0539C65.9231 23.6755 66.9021 24.6485 68.8602 24.6485C72.45 24.6485 73.4291 20.4323 73.4291 17.5134C72.45 17.8377 70.8183 18.162 69.1866 18.8107Z" fill="white"/>
<path d="M85.827 20.7566C85.827 20.7566 85.827 24.3242 90.0695 24.3242C93.0067 24.3242 93.6594 23.0269 93.6594 21.7296C93.6594 17.5134 80.6055 20.7566 80.6055 12.9728C80.6055 9.40525 83.8689 6.48633 89.4168 6.48633C97.2492 6.48633 98.5546 11.0269 98.5546 12.9728H93.333C93.333 12.9728 93.333 10.3782 89.7432 10.3782C87.4588 10.3782 86.4797 11.3512 86.4797 12.6485C86.4797 16.2161 99.5336 13.6215 99.5336 21.0809C99.5336 24.9728 96.2701 27.8917 90.3959 27.8917C82.2372 27.8917 80.9318 23.0269 80.9318 20.7566H85.827Z" fill="white"/>
<path d="M18.928 27.2441V31.4604H12.401V40.8658C12.401 42.4874 13.0537 43.136 14.6855 43.136C15.9908 43.136 16.3172 42.8117 16.3172 42.8117V47.0279C16.3172 47.0279 15.3381 47.3523 13.0537 47.3523C9.13755 47.6766 6.52677 46.7036 6.52677 42.1631V31.4604H0.326172V27.2441H18.928Z" fill="white"/>
<path d="M18.9258 27.2441H24.4737V31.4604H27.0845C29.3689 31.4604 30.3479 31.4604 30.3479 28.8658V27.2441H35.8958V29.5144C35.8958 34.055 34.2641 35.3522 28.7162 35.3522H24.1473V47.3522H18.9258V27.2441Z" fill="white"/>
<path d="M35.2466 33.4055C35.573 28.2163 39.8155 26.5947 44.3843 26.5947C49.2796 26.5947 53.1957 28.2163 53.1957 33.7299V47.6758H47.6478V43.7839H47.3215C47.3215 43.7839 46.0161 48.3245 40.7945 48.3245C37.2047 48.3245 34.2676 46.7028 34.2676 42.8109C34.2676 38.9191 37.5311 37.2974 40.7945 36.3245C44.058 35.3515 47.3215 35.3515 47.3215 33.0812C47.3215 31.4596 46.0161 30.4866 44.058 30.4866C41.7736 30.4866 40.4682 31.4596 40.4682 33.7299H35.2466V33.4055ZM43.4053 38.9191C41.7736 39.2434 40.1418 40.2163 40.1418 42.1623C40.1418 43.7839 41.1209 44.7569 43.079 44.7569C46.6688 44.7569 47.6478 40.5407 47.6478 37.6218C46.6688 37.9461 45.037 38.5947 43.4053 38.9191Z" fill="white"/>
<path d="M66.5738 47.3522H59.7205L52.8672 27.2441H58.7414L63.3103 42.4874L67.8791 27.2441H73.4271L66.5738 47.3522Z" fill="white"/>
<path d="M82.2377 26.5947C89.091 26.5947 92.0281 31.4596 92.0281 37.2974C92.0281 37.6218 92.0281 38.5947 92.0281 38.5947H77.6688C77.9952 41.838 79.3006 44.1082 82.564 44.1082C85.8275 44.1082 86.4802 40.865 86.4802 40.865H92.0281C92.0281 40.865 90.7227 48.0001 82.564 48.0001C75.7107 48.0001 72.4473 43.1353 72.4473 37.2974C72.4473 31.4596 75.7107 26.5947 82.2377 26.5947ZM77.9952 35.0272H86.8065C86.4802 32.4326 85.5012 30.8109 82.564 30.8109C79.6269 30.8109 78.3215 32.4326 77.9952 35.0272Z" fill="white"/>
<path d="M108.998 47.3522H93.6602V27.2441H99.2081V43.136H109.325V47.3522H108.998Z" fill="white"/>
</g>
<defs>
<clipPath id="clip0">
<rect width="109" height="48" fill="white"/>
</clipPath>
</defs>
</svg>
