<?xml version="1.0" standalone="no"?>
<!DOCTYPE svg PUBLIC "-//W3C//DTD SVG 20010904//EN"
 "http://www.w3.org/TR/2001/REC-SVG-20010904/DTD/svg10.dtd">
<svg version="1.0" xmlns="http://www.w3.org/2000/svg"
 width="3155.000000pt" height="3155.000000pt" viewBox="0 0 3155.000000 3155.000000"
 preserveAspectRatio="xMidYMid meet">
<metadata>
Created by potrace 1.11, written by Peter Selinger 2001-2013
</metadata>
<g transform="translate(0.000000,3155.000000) scale(0.100000,-0.100000)"
fill="#000000" stroke="none">
<path d="M9559 25775 c-2 -2 -58 -6 -124 -9 -66 -4 -140 -9 -165 -11 -25 -2
-83 -7 -130 -10 -47 -3 -101 -8 -120 -10 -19 -3 -60 -7 -90 -10 -30 -3 -71 -7
-90 -10 -19 -2 -53 -7 -75 -9 -53 -7 -124 -16 -155 -21 -24 -3 -89 -13 -140
-20 -14 -2 -68 -11 -120 -20 -52 -9 -108 -18 -125 -21 -68 -11 -91 -16 -257
-50 -95 -20 -180 -37 -188 -39 -8 -2 -64 -15 -125 -30 -60 -15 -118 -28 -127
-30 -48 -10 -376 -104 -538 -155 -359 -113 -778 -272 -1053 -399 -37 -17 -70
-31 -73 -31 -3 0 -114 -53 -247 -119 -606 -297 -1122 -614 -1652 -1015 -80
-60 -370 -291 -391 -311 -6 -5 -31 -26 -55 -47 -24 -20 -53 -44 -65 -55 -50
-43 -172 -153 -238 -213 -90 -82 -482 -474 -561 -561 -33 -36 -78 -85 -100
-110 -22 -24 -81 -91 -130 -149 -50 -58 -92 -107 -96 -110 -11 -10 -215 -266
-259 -325 -25 -33 -47 -62 -50 -65 -41 -37 -411 -578 -547 -800 -178 -290
-436 -770 -553 -1030 -18 -41 -46 -102 -61 -135 -157 -346 -333 -823 -444
-1200 -36 -123 -84 -296 -89 -320 -3 -11 -5 -20 -6 -20 -1 0 -3 -7 -5 -15 -1
-8 -17 -71 -34 -140 -26 -109 -89 -396 -105 -485 -21 -114 -46 -257 -51 -295
-4 -24 -8 -47 -10 -50 -1 -3 -6 -36 -10 -75 -4 -38 -8 -72 -10 -75 -1 -3 -6
-32 -10 -65 -3 -33 -8 -76 -11 -95 -10 -76 -13 -98 -19 -165 -4 -38 -8 -81
-10 -94 -2 -13 -7 -65 -10 -116 -4 -52 -8 -106 -10 -122 -20 -157 -28 -1055
-12 -1288 4 -60 10 -135 12 -165 2 -30 6 -94 10 -142 3 -47 7 -94 9 -105 2
-10 7 -54 11 -97 4 -43 8 -86 10 -95 1 -9 6 -43 9 -76 4 -33 9 -73 12 -90 2
-16 11 -77 19 -135 8 -58 17 -116 19 -130 2 -14 10 -59 16 -100 6 -41 16 -91
21 -110 5 -20 11 -51 13 -70 4 -28 34 -178 61 -305 13 -65 58 -248 71 -290 8
-28 17 -63 19 -77 27 -146 271 -901 354 -1093 5 -11 33 -78 61 -150 89 -222
208 -480 334 -728 66 -131 126 -246 131 -255 6 -9 30 -53 54 -97 53 -96 190
-328 239 -405 19 -30 45 -71 57 -90 92 -145 139 -215 146 -218 5 -2 9 -8 9
-13 0 -23 354 -504 529 -719 94 -114 321 -377 410 -474 97 -106 502 -508 595
-591 49 -44 98 -89 110 -100 12 -11 64 -56 116 -100 52 -44 100 -85 105 -91
47 -53 559 -440 785 -596 204 -139 685 -436 780 -481 8 -4 56 -30 105 -57 85
-48 532 -271 640 -320 200 -91 522 -220 735 -295 74 -26 144 -51 155 -55 76
-32 685 -212 790 -234 11 -3 67 -16 125 -30 88 -20 181 -41 285 -62 11 -2 43
-8 70 -14 89 -18 97 -20 280 -51 211 -35 214 -36 284 -44 30 -4 63 -8 74 -11
11 -2 44 -6 73 -8 29 -3 64 -8 76 -10 13 -3 52 -8 88 -11 36 -3 83 -8 105 -10
334 -32 500 -39 975 -39 386 0 629 6 741 19 20 3 69 7 110 10 41 3 90 7 109
10 19 2 67 7 105 10 39 3 81 8 95 10 14 2 50 7 80 10 30 4 69 9 85 11 17 2 48
7 70 9 22 3 51 8 65 10 14 2 45 7 70 10 39 6 199 32 298 50 18 3 64 12 102 20
38 8 84 17 102 20 18 3 61 12 94 20 34 8 73 16 85 19 59 11 299 71 449 112
454 125 886 278 1350 479 162 70 598 282 735 358 44 25 106 59 137 76 77 41
365 213 453 269 97 63 358 235 370 244 6 5 91 67 190 139 253 184 545 420 749
603 43 39 104 94 135 121 125 112 537 531 682 695 525 592 952 1196 1333 1890
48 86 252 496 295 589 32 70 67 150 96 216 7 17 22 51 34 77 11 26 21 50 21
53 0 4 9 25 19 48 58 129 281 745 281 778 0 5 -1156 9 -2772 9 l-2773 0 -25
-37 c-14 -20 -30 -41 -35 -47 -6 -6 -40 -47 -75 -91 -36 -44 -72 -87 -80 -96
-8 -9 -51 -55 -95 -104 -386 -427 -869 -796 -1403 -1072 -142 -73 -348 -169
-387 -179 -9 -2 -135 -52 -190 -75 -81 -34 -500 -157 -593 -174 -29 -5 -30 -5
-142 -29 -79 -16 -300 -51 -385 -60 -27 -3 -68 -8 -90 -10 -133 -15 -249 -20
-485 -20 -277 0 -381 5 -590 30 -69 9 -141 17 -160 20 -113 13 -399 73 -571
120 -1506 405 -2749 1515 -3333 2977 -37 91 -69 174 -71 184 -3 10 -16 50 -29
88 -25 72 -105 343 -112 379 -2 12 -6 30 -8 41 -18 81 -36 165 -39 185 -3 14
-12 63 -21 108 -9 46 -18 107 -21 135 -3 29 -8 61 -10 72 -1 11 -6 45 -10 75
-3 30 -8 69 -10 85 -19 144 -26 600 -12 820 8 131 12 179 28 300 6 44 13 96
15 115 14 115 69 380 114 550 136 507 339 965 634 1425 38 61 73 115 78 120 4
6 58 78 119 160 209 281 405 494 705 766 57 51 291 237 374 296 481 344 1020
604 1574 757 123 35 231 62 276 70 14 2 61 12 105 21 97 20 100 21 200 35 44
6 90 13 103 15 13 2 53 7 90 11 37 3 76 8 86 10 50 9 282 18 481 19 240 0 425
-9 585 -30 25 -3 68 -8 95 -11 28 -3 57 -7 65 -9 8 -3 33 -7 55 -10 208 -31
545 -111 747 -179 120 -40 222 -76 243 -86 11 -5 65 -27 120 -49 142 -55 407
-185 565 -275 488 -281 959 -666 1297 -1061 112 -131 130 -153 178 -217 l50
-67 2773 -1 c1524 0 2772 4 2772 8 0 15 -160 482 -180 527 -5 11 -35 85 -66
165 -122 313 -351 801 -501 1070 -38 69 -84 150 -100 180 -259 467 -720 1125
-1068 1524 -5 6 -39 45 -75 86 -36 41 -83 95 -105 119 -22 25 -65 72 -95 105
-89 99 -508 515 -599 596 -46 41 -107 96 -135 121 -28 26 -67 59 -86 75 -19
15 -53 44 -76 64 -22 19 -51 44 -65 55 -13 11 -49 40 -79 65 -30 25 -62 51
-70 57 -278 227 -757 560 -1085 756 -10 7 -37 23 -60 36 -22 14 -132 76 -245
139 -658 368 -1385 668 -2125 878 -182 51 -526 137 -600 149 -16 3 -70 14
-120 25 -100 21 -289 56 -350 65 -22 3 -78 12 -125 20 -47 7 -110 17 -140 20
-30 4 -62 9 -71 10 -8 2 -42 6 -74 9 -32 4 -72 8 -89 11 -70 9 -125 15 -191
20 -38 3 -83 8 -100 10 -16 2 -82 7 -145 11 -63 3 -131 8 -150 11 -40 5 -1006
14 -1011 8z"/>
<path d="M26485 19019 c-112 -15 -225 -61 -310 -124 -268 -202 -295 -609 -56
-845 130 -128 294 -187 511 -183 181 4 332 65 450 183 74 74 108 128 146 235
23 67 29 241 9 315 -52 196 -208 345 -422 401 -83 22 -241 31 -328 18z"/>
<path d="M9605 17409 c-33 -4 -81 -10 -106 -13 -114 -13 -345 -75 -473 -125
-313 -125 -610 -347 -789 -591 -26 -36 -51 -70 -56 -76 -18 -22 -101 -173
-135 -244 -63 -134 -120 -321 -141 -460 -2 -19 -8 -57 -12 -85 -10 -64 -10
-401 -1 -480 26 -213 95 -442 185 -615 60 -114 157 -258 228 -338 208 -233
446 -397 747 -516 77 -30 293 -91 355 -99 22 -4 52 -8 65 -11 149 -33 518 -39
698 -11 387 61 667 171 941 370 129 95 301 267 368 370 14 22 28 42 31 45 37
36 161 276 198 385 61 179 77 250 100 425 14 106 6 459 -11 556 -38 204 -86
353 -172 524 -262 525 -780 881 -1420 976 -22 3 -51 8 -65 11 -43 9 -472 11
-535 2z m385 -853 c280 -37 530 -210 653 -451 55 -108 92 -217 103 -303 3 -26
9 -72 13 -102 13 -106 4 -283 -21 -390 -5 -25 -12 -55 -14 -68 -6 -33 -40
-117 -77 -192 -109 -223 -329 -391 -582 -445 -123 -27 -289 -27 -415 0 -58 12
-117 27 -133 33 -264 108 -437 293 -525 562 -67 204 -75 469 -21 670 11 41 22
86 25 98 8 38 103 213 142 262 99 124 246 230 388 278 102 35 124 40 214 49
36 3 66 7 68 8 4 4 136 -3 182 -9z"/>
<path d="M14508 17415 c-2 -2 -27 -5 -56 -9 -82 -10 -123 -17 -187 -32 -33 -8
-68 -17 -78 -19 -51 -12 -183 -62 -262 -100 -136 -65 -254 -148 -363 -252 -24
-24 -46 -43 -48 -43 -2 0 -4 92 -4 204 l0 203 -495 0 c-272 0 -496 -2 -496 -6
-1 -3 -2 -810 -3 -1793 l-1 -1788 521 0 521 0 0 928 c1 510 4 959 7 997 39
445 284 733 681 801 17 3 82 7 146 9 278 8 482 -82 605 -265 83 -125 125 -258
139 -445 2 -27 4 -494 4 -1037 l1 -988 520 0 520 0 1 33 c0 17 1 496 1 1062 1
906 -3 1192 -16 1262 -2 10 -7 40 -10 67 -28 203 -112 442 -215 606 -136 217
-359 401 -606 498 -137 53 -210 72 -385 96 -78 11 -432 20 -442 11z"/>
<path d="M18630 17417 c-3 -3 -32 -7 -65 -10 -183 -18 -356 -62 -555 -138 -58
-23 -237 -116 -298 -156 -327 -213 -559 -500 -697 -864 -33 -86 -80 -259 -90
-334 -3 -22 -8 -46 -10 -53 -9 -24 -19 -198 -18 -298 1 -153 13 -275 39 -389
9 -38 18 -79 20 -91 10 -53 70 -218 109 -302 188 -397 501 -693 928 -876 112
-48 313 -111 392 -123 17 -2 46 -8 65 -13 19 -5 60 -12 90 -15 30 -4 63 -9 73
-11 45 -8 203 -17 317 -17 120 -1 349 11 361 18 3 2 27 6 55 10 312 37 652
177 882 363 75 60 192 173 192 185 0 10 -16 28 -154 178 -227 245 -278 301
-327 356 -30 34 -60 62 -68 62 -8 1 -32 -16 -55 -37 -147 -135 -351 -235 -569
-278 -161 -31 -437 -25 -607 15 -109 25 -255 89 -349 153 -77 53 -193 179
-240 263 -42 74 -101 220 -101 251 0 12 188 14 1355 14 l1355 0 1 33 c0 17 3
43 6 57 8 39 8 368 -1 437 -29 246 -82 434 -181 638 -210 435 -580 744 -1068
891 -72 22 -201 50 -322 69 -46 8 -459 18 -465 12z m298 -792 c118 -10 245
-51 366 -119 126 -70 254 -214 322 -361 39 -84 76 -208 72 -237 l-3 -21 -866
0 c-476 0 -871 3 -877 7 -7 4 -7 17 -2 39 5 17 11 43 14 57 7 39 52 154 81
206 68 121 158 220 265 289 79 52 134 77 224 104 92 28 107 31 211 38 50 3 92
7 93 9 2 1 9 1 15 -1 7 -2 45 -6 85 -10z"/>
<path d="M23365 17410 c-22 -4 -61 -11 -87 -14 -64 -9 -223 -50 -284 -75 -190
-75 -317 -156 -446 -285 -36 -36 -67 -66 -69 -66 -2 0 -4 89 -4 198 l0 197
-498 1 -497 1 0 -2441 0 -2441 518 0 517 0 5 832 5 832 55 -52 c57 -55 149
-127 210 -165 120 -74 338 -156 474 -178 21 -3 48 -8 60 -10 76 -16 302 -21
446 -11 97 7 116 10 206 28 28 5 64 12 80 15 58 10 265 84 351 125 220 105
378 224 541 409 222 253 364 575 419 949 23 161 22 566 -2 651 -3 8 -7 32 -11
54 -43 279 -170 571 -352 809 -53 70 -189 209 -252 257 -25 19 -47 37 -50 41
-16 20 -195 127 -282 169 -96 45 -250 104 -301 114 -40 9 -62 14 -102 24 -22
6 -60 13 -85 16 -25 3 -56 9 -70 12 -37 10 -449 12 -495 4z m195 -854 c176
-21 363 -112 491 -239 139 -137 225 -310 265 -532 13 -72 13 -373 0 -430 -73
-330 -207 -528 -446 -663 -49 -27 -183 -78 -235 -88 -97 -20 -265 -25 -360
-12 -273 37 -514 204 -642 444 -42 79 -89 209 -99 273 -3 18 -8 43 -11 55 -14
51 -12 353 3 426 33 175 91 315 176 429 196 260 497 378 858 337z"/>
<path d="M26083 15574 l0 -1794 521 0 521 0 0 1794 0 1793 -521 0 -521 0 0
-1793z"/>
<path d="M27687 17356 c6 -9 147 -197 214 -286 403 -529 1108 -1484 1102
-1493 -6 -10 -155 -206 -458 -602 -34 -44 -99 -129 -145 -190 -46 -60 -105
-137 -130 -170 -25 -33 -104 -136 -175 -230 -71 -93 -132 -172 -135 -175 -3
-3 -30 -39 -61 -80 -31 -41 -102 -135 -158 -208 -55 -73 -101 -135 -101 -137
0 -3 255 -5 568 -4 l567 0 65 91 c36 49 139 191 230 313 174 235 470 637 494
669 12 17 15 18 27 5 8 -8 126 -171 264 -364 137 -192 272 -381 300 -420 28
-38 87 -121 131 -182 l79 -113 593 0 592 0 -232 308 c-128 169 -238 314 -245
322 -7 8 -43 56 -80 106 -38 51 -78 105 -90 120 -12 16 -73 97 -135 179 -63
83 -192 254 -288 380 -96 127 -203 268 -238 314 -35 46 -66 90 -69 98 -3 7 22
48 54 91 62 79 167 218 485 637 100 132 215 283 255 335 291 380 522 686 523
691 0 3 -248 5 -552 5 l-552 -1 -50 -67 c-28 -36 -60 -79 -71 -94 -11 -15 -38
-51 -60 -80 -22 -29 -48 -63 -57 -76 -15 -21 -155 -208 -426 -572 -54 -72
-100 -135 -104 -140 -6 -10 -48 24 -48 38 0 3 -6 14 -14 23 -17 21 -74 98 -99
133 -9 14 -34 48 -55 76 -119 164 -290 400 -307 424 -11 16 -70 98 -132 183
l-112 154 -585 0 c-423 0 -583 -3 -579 -11z"/>
</g>
</svg>
