<?xml version="1.0" standalone="no"?>
<!DOCTYPE svg PUBLIC "-//W3C//DTD SVG 20010904//EN"
 "http://www.w3.org/TR/2001/REC-SVG-20010904/DTD/svg10.dtd">
<svg version="1.0" xmlns="http://www.w3.org/2000/svg"
 width="700.000000pt" height="700.000000pt" viewBox="0 0 700.000000 700.000000"
 preserveAspectRatio="xMidYMid meet">
<metadata>
Created by potrace 1.11, written by Peter Selinger 2001-2013
</metadata>
<g transform="translate(0.000000,700.000000) scale(0.100000,-0.100000)"
fill="#000000" stroke="none">
<path d="M4069 6238 c-1 -7 -2 -235 -3 -507 -1 -404 -3 -495 -14 -499 -8 -2
-33 14 -55 36 -64 61 -133 110 -211 149 -67 34 -176 76 -176 68 0 -1 -21 4
-47 12 -67 21 -316 26 -413 8 -191 -35 -338 -111 -470 -244 -170 -171 -274
-401 -317 -702 -16 -112 -9 -453 12 -529 2 -8 6 -31 9 -50 5 -37 41 -162 56
-195 5 -11 21 -49 36 -85 112 -261 317 -453 569 -533 119 -37 289 -51 425 -35
56 7 175 40 220 61 125 57 253 162 316 256 28 44 50 52 57 24 3 -10 4 -72 3
-138 -1 -66 1 -124 5 -130 8 -10 564 -14 574 -3 6 6 10 247 30 1993 3 259 8
602 10 763 l4 292 -309 0 c-241 0 -310 -3 -311 -12z m-398 -1178 c109 -37 176
-89 250 -194 170 -241 193 -654 51 -945 -67 -137 -209 -254 -337 -276 -341
-59 -581 135 -650 524 -20 112 -12 343 15 451 54 216 181 379 340 435 104 37
231 39 331 5z"/>
<path d="M995 5513 c-426 -49 -679 -211 -790 -507 -14 -37 -27 -82 -30 -99 -2
-18 -7 -43 -10 -57 -8 -35 -9 -79 -2 -86 7 -7 593 -8 605 0 5 3 12 33 15 67
13 122 83 217 193 259 50 20 78 23 189 24 116 1 137 -2 194 -24 113 -45 184
-141 183 -249 -1 -66 -19 -116 -59 -155 -38 -39 -150 -89 -253 -114 -47 -12
-152 -37 -235 -57 -438 -105 -696 -244 -819 -439 -112 -178 -123 -421 -29
-624 62 -131 241 -263 404 -298 80 -17 130 -24 176 -26 99 -5 53 -15 -62 -14
-97 1 -115 -1 -115 -14 -1 -23 -1 -358 -1 -412 l1 -46 341 0 c187 0 343 -2
346 -5 2 -3 5 -297 5 -653 1 -717 3 -744 63 -869 74 -155 200 -231 415 -253
83 -8 108 -8 345 2 123 6 174 11 235 24 l35 8 3 236 2 236 -42 -16 c-66 -23
-221 -21 -279 5 -53 24 -92 70 -108 127 -7 26 -11 235 -11 598 l0 558 47 1
c57 1 665 0 676 0 4 -1 7 -401 7 -891 l0 -889 292 2 293 2 1 660 c1 363 2 665
3 670 1 7 103 11 309 11 285 1 458 7 525 19 29 5 61 12 102 20 111 23 230 100
287 185 l17 25 0 -32 c1 -29 4 -33 29 -34 43 0 463 -1 512 0 l45 1 3 42 c8
111 60 211 137 258 101 63 318 78 439 30 138 -53 208 -177 180 -318 -16 -77
-123 -152 -279 -195 -65 -18 -302 -75 -349 -83 -66 -13 -301 -96 -383 -136
-300 -148 -428 -321 -439 -593 -8 -191 41 -329 156 -445 133 -133 314 -195
570 -194 136 1 187 9 290 48 182 68 326 202 411 383 23 49 40 73 52 73 16 0
17 -17 17 -218 l0 -217 303 1 c166 1 306 2 310 3 4 0 6 389 5 863 -3 858 -4
864 -26 943 -99 356 -394 539 -884 549 -25 1 -49 3 -52 7 -3 3 26 5 64 4 l69
0 -1 668 c0 368 2 670 4 672 1 1 165 5 363 8 198 3 376 8 395 11 285 41 417
132 479 326 28 87 37 181 36 390 l0 175 -309 0 -308 0 -3 -152 c-3 -126 -7
-159 -24 -197 -47 -107 -87 -119 -419 -118 -119 0 -224 1 -233 1 -15 1 -16 25
-17 214 0 116 -1 222 -1 235 l-1 22 -290 0 c-159 0 -290 -3 -291 -7 0 -5 -1
-509 -2 -1121 -1 -733 1 -1116 8 -1121 6 -4 112 -6 238 -6 125 1 227 -1 227
-4 0 -3 -26 -6 -57 -7 -335 -3 -614 -102 -779 -275 -43 -45 -114 -150 -114
-168 0 -5 -3 -12 -7 -14 -5 -3 -8 83 -8 191 l0 197 -302 -1 c-166 0 -304 -2
-307 -4 -2 -3 -6 -68 -7 -145 -3 -200 -35 -277 -127 -306 -22 -7 -137 -13
-284 -15 l-246 -3 -1 207 c0 114 0 221 0 237 l-1 30 -1209 0 c-666 0 -1208 2
-1205 4 3 3 28 7 57 8 68 5 199 37 256 65 156 74 281 197 360 356 17 34 32 62
34 62 1 0 2 -101 2 -225 l-1 -225 311 0 311 0 -1 833 c-1 457 -5 855 -9 882
-37 248 -161 427 -367 528 -103 51 -250 92 -374 105 -78 9 -360 12 -420 5z
m548 -1262 c-21 -284 -92 -485 -217 -619 -106 -113 -261 -164 -405 -133 -101
21 -189 104 -207 191 -35 179 35 318 202 399 35 17 68 31 74 31 20 0 437 144
490 169 62 29 68 25 63 -38z m-723 -1133 c0 -4 -7 -8 -15 -8 -8 0 -15 4 -15 8
0 5 7 9 15 9 8 0 15 -4 15 -9z m5026 -1250 c-13 -208 -68 -400 -148 -516 -96
-140 -218 -202 -384 -197 -134 5 -221 50 -270 138 -26 47 -29 61 -29 147 0 80
4 103 24 143 57 116 156 178 369 231 79 20 207 58 285 85 78 27 146 50 150 50
5 1 6 -36 3 -81z"/>
</g>
</svg>
